<?xml version="1.0" encoding="UTF-8" standalone="no"?>
<!-- Created with Inkscape (http://www.inkscape.org/) -->

<svg
   width="63.999996"
   height="63.999996"
   viewBox="0 0 15.999999 15.999999"
   version="1.1"
   id="svg1"
   xmlns:xlink="http://www.w3.org/1999/xlink"
   xmlns="http://www.w3.org/2000/svg"
   xmlns:svg="http://www.w3.org/2000/svg"
   xmlns:rdf="http://www.w3.org/1999/02/22-rdf-syntax-ns#"
   xmlns:cc="http://creativecommons.org/ns#"
   xmlns:dc="http://purl.org/dc/elements/1.1/">
  <defs
     id="defs1">
    <linearGradient
       id="linearGradient3">
      <stop
         style="stop-color:#144f34;stop-opacity:1;"
         offset="0"
         id="stop3" />
      <stop
         style="stop-color:#26a269;stop-opacity:1;"
         offset="0.47126231"
         id="stop5" />
      <stop
         style="stop-color:#8ff0a4;stop-opacity:1;"
         offset="1"
         id="stop4" />
    </linearGradient>
    <linearGradient
       xlink:href="#linearGradient3"
       id="linearGradient4"
       x1="14.4526"
       y1="15.52836"
       x2="2.7595575"
       y2="3.8353183"
       gradientUnits="userSpaceOnUse"
       gradientTransform="matrix(-1,0,0,1,16.933333,0)" />
  </defs>
  <metadata
     id="metadata1">
    <rdf:RDF>
      <cc:Work
         rdf:about="">
        <dc:format>image/svg+xml</dc:format>
        <dc:type
           rdf:resource="http://purl.org/dc/dcmitype/StillImage" />
      </cc:Work>
    </rdf:RDF>
  </metadata>
  <g
     id="layer4"
     transform="matrix(-1,0,0,1,15.999999,0)">
    <path
       style="fill:#ffffff;fill-opacity:1;fill-rule:nonzero;stroke-width:8.31894"
       id="rect45"
       width="12.7"
       height="14.816667"
       x="2.1166666"
       y="1.0583333"
       d="M 3.1878849,1.0583333 H 13.758746 a 1.0579199,1.0579199 45 0 1 1.05792,1.0579199 V 14.81584 A 1.0591601,1.0591601 135 0 1 13.757506,15.875 H 3.1773838 A 1.0607172,1.0607172 45 0 1 2.1166666,14.814283 V 2.1295516 A 1.0712183,1.0712183 135 0 1 3.1878849,1.0583333 Z"
       transform="scale(0.9448819)" />
    <path
       id="rect1-9"
       style="display:inline;fill:url(#linearGradient4);fill-opacity:1;stroke-width:9.81427"
       d="M 3.1758267,1.0583333 H 9.5249998 L 12.43869,4.5790422 A 1.1380809,1.1380809 70.194655 0 1 12.7,5.3046459 V 15.875 H 3.1756409 A 1.0589743,1.0589743 45 0 1 2.1166666,14.816026 V 2.1174934 A 1.0591601,1.0591601 135 0 1 3.1758267,1.0583333 Z"
       transform="scale(0.9448819)" />
  </g>
  <g
     id="layer2"
     style="display:inline;opacity:1"
     transform="matrix(-1,0,0,1,15.999999,0)">
    <rect
       style="fill:#ffffff;fill-opacity:1;stroke-width:4.3068"
       id="rect7"
       width="2"
       height="1.5"
       x="3"
       y="5.5"
       ry="0.25" />
    <rect
       style="fill:#ffffff;fill-opacity:1;stroke-width:4.35492"
       id="rect8"
       width="2"
       height="1.5"
       x="5.5"
       y="5.5"
       ry="0.25" />
    <rect
       style="fill:#ffffff;fill-opacity:1;stroke-width:4.47914"
       id="rect9"
       width="2"
       height="1.5"
       x="8"
       y="5.5"
       ry="0.25" />
    <rect
       style="display:inline;fill:#ffffff;fill-opacity:1;stroke-width:3.51648"
       id="rect7-4"
       width="2"
       height="1"
       x="3"
       y="7.5"
       ry="0.25" />
    <rect
       style="display:inline;fill:#ffffff;fill-opacity:1;stroke-width:3.55578"
       id="rect8-9"
       width="2"
       height="1"
       x="5.5"
       y="7.5"
       ry="0.25" />
    <rect
       style="display:inline;fill:#ffffff;fill-opacity:1;stroke-width:3.65721"
       id="rect9-2"
       width="2"
       height="1"
       x="8"
       y="7.5"
       ry="0.25" />
    <rect
       style="display:inline;fill:#ffffff;fill-opacity:1;stroke-width:3.51648"
       id="rect7-4-2"
       width="2"
       height="1"
       x="3"
       y="9"
       ry="0.25" />
    <rect
       style="display:inline;fill:#ffffff;fill-opacity:1;stroke-width:3.55578"
       id="rect8-9-6"
       width="2"
       height="1"
       x="5.4999995"
       y="9"
       ry="0.25" />
    <rect
       style="display:inline;fill:#ffffff;fill-opacity:1;stroke-width:3.16724"
       id="rect9-2-6"
       width="1.5"
       height="1"
       x="7.9999995"
       y="9"
       ry="0.25" />
    <rect
       style="display:inline;fill:#ffffff;fill-opacity:1;stroke-width:3.51648"
       id="rect7-4-4"
       width="2"
       height="1"
       x="3"
       y="10.5"
       ry="0.25" />
    <rect
       style="display:inline;fill:#ffffff;fill-opacity:1;stroke-width:3.55578"
       id="rect8-9-8"
       width="2"
       height="1"
       x="5.5"
       y="10.5"
       ry="0.25" />
    <rect
       style="fill:#ffffff;fill-opacity:1;stroke-width:4.98445"
       id="rect10"
       width="1"
       height="5"
       x="10"
       y="9"
       ry="0.25" />
    <rect
       style="fill:#ffffff;fill-opacity:1;stroke-width:4.98128"
       id="rect11"
       width="1"
       height="3.5"
       x="8"
       y="10.5"
       ry="0.25" />
    <rect
       style="fill:#ffffff;fill-opacity:1;stroke-width:5.02956"
       id="rect12"
       width="1"
       height="2"
       x="6"
       y="12"
       ry="0.25" />
  </g>
  <g
     id="layer3"
     transform="matrix(-1,0,0,1,15.999999,0)">
    <path
       style="fill:#ffffff;fill-opacity:0.59981102;stroke-width:3.75"
       d="m 9,1 3,3 V 5 A 1.003805,1.003805 45 0 0 11,4 l 0,0 H 9 Z"
       id="path22" />
  </g>
</svg>
