<?xml version="1.0" encoding="UTF-8" standalone="no"?>
<!-- Created with Inkscape (http://www.inkscape.org/) -->

<svg
   width="63.999996"
   height="63.999996"
   viewBox="0 0 15.999999 15.999999"
   version="1.1"
   id="svg1"
   sodipodi:docname="launcher-1.2.svg"
   inkscape:version="1.4.3 (0d15f75042, 2025-12-25)"
   xmlns:inkscape="http://www.inkscape.org/namespaces/inkscape"
   xmlns:sodipodi="http://sodipodi.sourceforge.net/DTD/sodipodi-0.dtd"
   xmlns:xlink="http://www.w3.org/1999/xlink"
   xmlns="http://www.w3.org/2000/svg"
   xmlns:svg="http://www.w3.org/2000/svg"
   xmlns:rdf="http://www.w3.org/1999/02/22-rdf-syntax-ns#"
   xmlns:cc="http://creativecommons.org/ns#"
   xmlns:dc="http://purl.org/dc/elements/1.1/">
  <sodipodi:namedview
     id="namedview1"
     pagecolor="#ffffff"
     bordercolor="#000000"
     borderopacity="0.25"
     inkscape:showpageshadow="2"
     inkscape:pageopacity="0.0"
     inkscape:pagecheckerboard="0"
     inkscape:deskcolor="#d1d1d1"
     inkscape:zoom="9.0625005"
     inkscape:cx="31.999998"
     inkscape:cy="31.999998"
     inkscape:window-width="1600"
     inkscape:window-height="808"
     inkscape:window-x="0"
     inkscape:window-y="0"
     inkscape:window-maximized="1"
     inkscape:current-layer="svg1" />
  <defs
     id="defs1">
    <linearGradient
       id="linearGradient6">
      <stop
         style="stop-color:#000000;stop-opacity:0.50294501;"
         offset="0"
         id="stop6" />
      <stop
         style="stop-color:#000000;stop-opacity:0;"
         offset="1"
         id="stop7" />
    </linearGradient>
    <linearGradient
       id="linearGradient3">
      <stop
         style="stop-color:#4a4a4a;stop-opacity:1;"
         offset="0"
         id="stop3" />
      <stop
         style="stop-color:#818181;stop-opacity:1;"
         offset="0.47126231"
         id="stop5" />
      <stop
         style="stop-color:#cdcdcd;stop-opacity:1;"
         offset="1"
         id="stop4" />
    </linearGradient>
    <linearGradient
       xlink:href="#linearGradient3"
       id="linearGradient4"
       x1="14.507419"
       y1="15.667784"
       x2="2.6950624"
       y2="3.8554275"
       gradientUnits="userSpaceOnUse"
       gradientTransform="matrix(-1,0,0,1,16.933333,0)" />
    <linearGradient
       xlink:href="#linearGradient6"
       id="linearGradient7"
       x1="10.578125"
       y1="3.015625"
       x2="5.742187"
       y2="7.851563"
       gradientUnits="userSpaceOnUse" />
  </defs>
  <metadata
     id="metadata1">
    <rdf:RDF>
      <cc:Work
         rdf:about="">
        <dc:format>image/svg+xml</dc:format>
        <dc:type
           rdf:resource="http://purl.org/dc/dcmitype/StillImage" />
      </cc:Work>
    </rdf:RDF>
  </metadata>
  <g
     id="layer1"
     transform="matrix(-0.9448819,0,0,0.9448819,16,0)">
    <path
       style="fill:#ffffff;fill-opacity:1;fill-rule:nonzero;stroke-width:8.31894"
       id="rect45"
       width="12.7"
       height="14.816667"
       x="2.1166666"
       y="1.0583333"
       d="M 3.1878849,1.0583333 H 13.758746 a 1.0579199,1.0579199 45 0 1 1.05792,1.0579199 V 14.81584 A 1.0591601,1.0591601 135 0 1 13.757506,15.875 H 3.1773838 A 1.0607172,1.0607172 45 0 1 2.1166666,14.814283 V 2.1295516 A 1.0712183,1.0712183 135 0 1 3.1878849,1.0583333 Z" />
    <path
       id="rect1-9"
       style="display:inline;fill:url(#linearGradient4);fill-opacity:1;stroke-width:9.81427"
       d="M 3.1758267,1.0583333 H 9.5249998 L 12.43869,4.5790422 A 1.1380809,1.1380809 70.194655 0 1 12.7,5.3046459 V 15.875 H 3.1756409 A 1.0589743,1.0589743 45 0 1 2.1166666,14.816026 V 2.1174934 A 1.0591601,1.0591601 135 0 1 3.1758267,1.0583333 Z" />
  </g>
  <g
     id="layer3"
     transform="matrix(-1,0,0,1,16,0)">
    <path
       style="fill:#ffffff;fill-opacity:0.499189;stroke-width:3.75"
       d="m 9,1 3,3 V 5 A 1.003805,1.003805 45 0 0 11,4 l 0,0 H 9 Z"
       id="path22" />
  </g>
</svg>
